# AST/ASF file generated using VICON BodyLanguage
# -----------------------------------------------
:version 1.10
:name VICON
:units
  mass 1.0
  length 0.45
  angle deg
:documentation
   .ast/.asf automatically generated from VICON data using
   VICON BodyBuilder and BodyLanguage model FoxedUp or BRILLIANT.MOD
:root
   order TX TY TZ RX RY RZ
   axis XYZ
   position 0 0 0  
   orientation 0 0 0 
:bonedata
  begin
     id 1 
     name lhipjoint
     direction 0.603808 -0.713975 0.35448 
     length 2.2025 
     axis 0 0 0  XYZ
  end
  begin
     id 2 
     name lfemur
     direction 0.34202 -0.939693 0  
     length 6.55877  
     axis 0 0 20  XYZ
    dof rx ry rz
    limits (-160.0 20.0)
           (-70.0 70.0)
           (-60.0 70.0)
  end
  begin
     id 3 
     name ltibia
     direction 0.34202 -0.939693 0   
     length 6.80302   
     axis 0 0 20   XYZ
    dof rx
    limits (-10.0 170.0)
  end
  begin
     id 4 
     name lfoot
     direction 0.091848 -0.25235 0.963267   
     length 2.03446   
     axis -90 7.62852e-016 20   XYZ
    dof rx rz
    limits (-45.0 90.0)
           (-70.0 20.0)
  end
  begin
     id 5 
     name ltoes
     direction 1.53608e-011 -4.21925e-011 1   
     length 1.02033   
     axis -90 7.62852e-016 20   XYZ
    dof rx
    limits (-90.0 20.0)
  end
  begin
     id 6 
     name rhipjoint
     direction -0.587285 -0.724947 0.359928   
     length 2.16916  
     axis 0 0 0  XYZ 
  end
  begin
     id 7 
     name rfemur
     direction -0.34202 -0.939693 0   
     length 6.43173   
     axis 0 0 -20   XYZ
    dof rx ry rz
    limits (-160.0 20.0)
           (-70.0 70.0)
           (-70.0 60.0)
  end
  begin
     id 8 
     name rtibia
     direction -0.34202 -0.939693 0   
     length 6.70662   
     axis 0 0 -20   XYZ
    dof rx
    limits (-10.0 170.0)
 end
 begin
     id 9 
     name rfoot
     direction -0.11854 -0.325686 0.938018   
     length 2.0773  
     axis -90 -7.62852e-016 -20   XYZ
    dof rx rz
    limits (-45.0 90.0)
           (-20.0 70.0)
  end
  begin
     id 10 
     name rtoes
     direction -1.53547e-011 -4.21838e-011 1   
     length 1.03267   
     axis -90 -7.62852e-016 -20   XYZ
    dof rx
    limits (-90.0 20.0)
  end
  begin
     id 11 
     name lowerback
     direction -0.0286554 0.999539 0.0100613   
     length 2.08751   
     axis 0 0 0   XYZ
    dof rx ry rz
    limits (-20.0 45.0)
           (-30.0 30.0)
           (-30.0 30.0)
  end
  begin
     id 12 
     name upperback
     direction 0.0227093 0.999705 -0.00860929   
     length 2.08517   
     axis 0 0 0   XYZ
    dof rx ry rz
    limits (-20.0 45.0)
           (-30.0 30.0)
           (-30.0 30.0)
  end
  begin
     id 13 
     name thorax
     direction 0.0351627 0.999285 -0.013892   
     length 2.08412   
     axis 0 0 0   XYZ
    dof rx ry rz
    limits (-20.0 45.0)
           (-30.0 30.0)
           (-30.0 30.0)
  end
  begin
     id 14 
     name lowerneck
     direction -0.0696283 0.997344 0.0213922   
     length 1.44164   
     axis 0 0 0   XYZ
    dof rx ry rz
    limits (-20.0 45.0)
           (-30.0 30.0)
           (-30.0 30.0)
  end
  begin
     id 15 
     name upperneck
     direction 0.0531 0.990412 -0.127531   
     length 1.45022   
     axis 0 0 0   XYZ
    dof rx ry rz
    limits (-20.0 45.0)
           (-30.0 30.0)
           (-30.0 30.0)
  end
  begin
     id 16
     name head
     direction 0.0188154 0.998548 -0.0504727  
     length 1.45845  
     axis 0 0 0   XYZ
    dof rx ry rz
    limits (-20.0 45.0)
           (-30.0 30.0)
           (-30.0 30.0)
  end
  begin
     id 17 
     name lclavicle
     direction 0.961559 0.260051 0.088188  
     length 2.86057  
     axis 0 0 0   XYZ
    dof ry rz
    limits (-20.0 10.0)
           (0.0 20.0)
  end
  begin
     id 18 
     name lhumerus
     direction 1 -4.48959e-011 2.88185e-027   
     length 4.36901   
     axis 180 -30 -90   XYZ
    dof rx ry rz
    limits (-60.0 90.0)
           (-90.0 90.0)
           (-90.0 90.0)
  end
  begin
     id 19
     name lradius
     direction 1 -4.48965e-011 -3.92618e-028   
     length 3.21737   
     axis 180 -30 -90   XYZ
    dof rx
    limits (-10.0 170.0)
  end
  begin
     id 20
     name lwrist
     direction 1 -4.49037e-011 2.57246e-027   
     length 1.60869   
     axis -1.61769e-015 90 90   XYZ
    dof ry
    limits (-180.0 0.0)
 end
  begin
     id 21 
     name lhand
     direction 1 -4.48807e-011 5.12958e-027   
     length 0.564313   
     axis -3.27988e-015 90 90   XYZ
    dof rx rz
    limits (-90.0 90.0)
           (-45.0 45.0)
  end
  begin
     id 22 
     name lfingers
     direction 1 -4.48879e-011 1.02687e-026   
     length 0.454963   
     axis -6.5598e-015 90 90   XYZ
    dof rx
    limits (0.0 90.0)
  end
  begin
     id 23
     name lthumb
     direction 0.707107 -6.3475e-011 0.707107   
     length 0.653239   
     axis -90 45 2.19363e-014   XYZ
    dof rx rz
    limits (-45.0 45.0)
           (-45.0 45.0)
  end
  begin
     id 24 
     name rclavicle
     direction -0.954677 0.253915 0.155304   
     length 3.11497  
     axis 0 0 0   XYZ 
    dof ry rz
    limits (-10.0 20.0)
           (-20.0 0.0)
  end
  begin
     id 25 
     name rhumerus
     direction -1 -4.48958e-011 -8.20169e-028  
     length 4.34118   
     axis 180 30 90   XYZ
    dof rx ry rz
    limits (-90.0 60.0)
           (-90.0 90.0)
           (-90.0 90.0)
  end
  begin
     id 26 
     name rradius
     direction -1 -4.48978e-011 1.5676e-027   
     length 3.09531   
     axis 180 30 90   XYZ
    dof rx
    limits (-10.0 170.0)
  end
  begin
     id 27 
     name rwrist
     direction -1 -4.49001e-011 2.57123e-027   
     length 1.54765   
     axis -1.61769e-015 -90 -90   XYZ
    dof ry
    limits (-180.0 0.0)
  end
  begin
     id 28
     name rhand
     direction -1 -4.48847e-011 5.13225e-027   
     length 0.597446   
     axis -3.27988e-015 -90 -90   XYZ
    dof rx rz
    limits (-90.0 90.0)
           (-45.0 45.0)
  end
  begin
     id 29
     name rfingers
     direction -1 -4.49094e-011 1.02974e-026   
     length 0.481677   
     axis -6.5598e-015 -90 -90   XYZ
    dof rx
    limits (0.0 90.0)
  end
  begin
     id 30
     name rthumb
     direction -0.707107 -6.34859e-011 0.707107   
     length 0.691594   
     axis -90 -45 -2.19363e-014   XYZ
    dof rx rz
    limits (-45.0 45.0)
           (-45.0 45.0)
  end
:hierarchy
  begin
    root lhipjoint rhipjoint lowerback
    lhipjoint lfemur
    lfemur ltibia
    ltibia lfoot
    lfoot ltoes
    rhipjoint rfemur
    rfemur rtibia
    rtibia rfoot
    rfoot rtoes
    lowerback upperback
    upperback thorax
    thorax lowerneck lclavicle rclavicle
    lowerneck upperneck
    upperneck head
    lclavicle lhumerus
    lhumerus lradius
    lradius lwrist
    lwrist lhand lthumb
    lhand lfingers
    rclavicle rhumerus
    rhumerus rradius
    rradius rwrist
    rwrist rhand rthumb
    rhand rfingers
  end

#!OML:ASF I:\Acrobat_Osman\acrobat\cartwheel_test 2\Patient 1\Session 1\acrobat.ASF
:FULLY-SPECIFIED
:DEGREES
1837
root 5.66479 15.5905 -3.45434 2.84149 -20.2648 3.07024
lowerback 1.71485 -5.51614 -3.63488
upperback 2.15553 -7.41082 1.76433
thorax 1.95986 -3.79314 3.78895
lowerneck -3.00609 -11.5595 -12.2936
upperneck 1.15586 -15.462 13.644
head 2.86872 -7.58755 5.29836
rclavicle 1.41733e-013 -1.31198e-014
rhumerus -36.4851 -5.73099 -63.0123
rradius 43.3362
rwrist -5.67108
rhand -19.0945 20.8498
rfingers 7.12502
rthumb 7.21395 -9.00719
lclavicle 1.41733e-013 -1.31198e-014
lhumerus -44.5089 -13.9978 88.3505
lradius 84.1834
lwrist 11.275
lhand -14.1095 45.0521
lfingers 7.12502
lthumb 12.0235 794.687
rfemur -12.0289 13.759 16.7605
rtibia 31.7556
rfoot -28.1666 -28.7238
rtoes -4.24711
lfemur -199.044 168.065 -191.848
ltibia 32.2429
lfoot -11.8052 6.53943
ltoes -39.0877
1838
root 5.76606 15.6026 -3.36021 2.98628 -20.1888 2.64634
lowerback 1.71168 -5.48172 -3.79647
upperback 1.94846 -7.369 1.93276
thorax 1.78726 -3.77013 4.06278
lowerneck -3.00722 -11.6226 -12.4989
upperneck 1.54311 -15.5704 13.5768
head 3.00727 -7.63779 5.28694
rclavicle 5.86415e-014 -9.14409e-015
rhumerus -36.6394 -5.62466 -62.4445
rradius 42.4033
rwrist -5.33774
rhand -18.9691 20.6705
rfingers 7.12502
rthumb 7.335 -9.18238
lclavicle 5.86415e-014 -9.14409e-015
lhumerus -44.1595 -13.3655 88.2865
lradius 84.2527
lwrist 10.7401
lhand -12.6384 45.6472
lfingers 7.12502
lthumb 13.4417 795.194
rfemur -11.4238 13.3781 16.6969
rtibia 31.014
rfoot -27.6693 -28.544
rtoes -5.20023
lfemur -198.313 170.955 -192.351
ltibia 30.9331
lfoot -7.66569 13.5384
ltoes -37.0809
1839
root 5.87245 15.6193 -3.26413 3.09974 -20.0359 2.34655
lowerback 1.7046 -5.44987 -4.08322
upperback 1.66412 -7.33158 2.08438
thorax 1.55078 -3.74707 4.39248
lowerneck -2.77169 -11.6613 -12.7591
upperneck 1.9769 -15.6687 13.4513
head 3.11923 -7.69329 5.28029
rclavicle 2.06736e-014 3.57812e-015
rhumerus -36.9719 -5.54411 -61.8004
rradius 41.5263
rwrist -4.86891
rhand -18.7591 20.0563
rfingers 7.12502
rthumb 7.53764 -9.7894
lclavicle 2.06736e-014 3.57812e-015
lhumerus -43.9764 -12.6704 88.3024
lradius 84.2909
lwrist 10.0932
lhand -15.0231 45.0551
lfingers 7.12502
lthumb 11.1425 794.739
rfemur -10.8804 12.5545 16.4345
rtibia 30.2732
rfoot -26.9839 -28.0737
rtoes -6.33812
lfemur -197.786 174.301 -192.867
ltibia 30.0193
lfoot -6.29146 16.0869
ltoes -37.6368
1840
root 5.98227 15.6335 -3.17311 3.20115 -19.8102 2.1839
lowerback 1.45652 -5.3702 -4.43916
upperback 1.57887 -7.21958 2.05779
thorax 1.63051 -3.69557 4.54153
lowerneck -2.49075 -11.7661 -12.7353
upperneck 2.06253 -15.8574 13.5339
head 3.12868 -7.79478 5.29789
rclavicle 4.49253e-014 -3.10104e-014
rhumerus -37.1663 -6.18584 -61.2592
rradius 40.5934
rwrist -4.04005
rhand -18.1448 19.1654
rfingers 7.12502
rthumb 8.13055 -10.6582
lclavicle 4.49253e-014 -3.10104e-014
lhumerus -43.4752 -12.2463 88.0144
lradius 84.2606
lwrist 9.60989
lhand -16.7805 43.7983
lfingers 7.12502
lthumb 9.44718 793.567
rfemur -10.4263 11.9992 16.0469
rtibia 29.6379
rfoot -26.4603 -27.8867
rtoes -7.20616
lfemur -197.408 177.114 -193.394
ltibia 29.5383
lfoot -5.1269 18.8897
ltoes -38.8523
1841
root 6.08909 15.6528 -3.09272 3.24119 -19.664 2.27492
lowerback 1.24928 -5.21533 -5.12069
upperback 1.57199 -7.00714 1.94382
thorax 1.78446 -3.60132 4.78302
lowerneck -2.43425 -11.9656 -12.5551
upperneck 2.11263 -16.1558 13.6469
head 3.16877 -7.94089 5.27826
rclavicle 3.1408e-014 2.78299e-015
rhumerus -37.3819 -6.9588 -60.8373
rradius 39.8606
rwrist -3.21334
rhand -17.8513 18.8678
rfingers 7.12502
rthumb 8.41389 -10.9446
lclavicle 3.1408e-014 2.78299e-015
lhumerus -42.8917 -11.8444 87.5314
lradius 84.5273
lwrist 9.60329
lhand -16.5066 43.5213
lfingers 7.12502
lthumb 9.71139 793.277
rfemur -10.1126 11.7742 15.4366
rtibia 29.1497
rfoot -26.1116 -27.9094
rtoes -7.83648
lfemur -197.238 178.925 -193.974
ltibia 29.4595
lfoot -5.0847 20.4472
ltoes -37.8557
1842
root 6.19365 15.6732 -3.01975 3.22858 -19.4972 2.66017
lowerback 1.17273 -5.07389 -6.18562
upperback 1.46965 -6.8199 1.85963
thorax 1.81615 -3.52056 5.28634
lowerneck -2.52116 -12.1857 -12.6832
upperneck 2.38797 -16.4755 13.7519
head 3.32621 -8.09101 5.28181
rclavicle 1.54853e-013 5.1684e-015
rhumerus -37.7517 -7.25545 -60.4777
rradius 39.472
rwrist -2.94544
rhand -18.0872 19.0067
rfingers 7.12502
rthumb 8.18615 -10.8147
lclavicle 1.54853e-013 5.1684e-015
lhumerus -42.4959 -11.148 86.964
lradius 85.3045
lwrist 10.544
lhand -15.358 45.1083
lfingers 7.12502
lthumb 10.8194 794.81
rfemur -9.9754 11.2657 14.4805
rtibia 28.8315
rfoot -25.8124 -27.5518
rtoes -7.86351
lfemur -197.238 179.455 -194.703
ltibia 29.6411
lfoot -6.65751 20.3242
ltoes -35.6193
1843
root 6.30296 15.6879 -2.9484 3.28659 -19.3227 2.92514
lowerback 1.14112 -4.93533 -7.04242
upperback 1.32467 -6.63927 1.81384
thorax 1.75338 -3.43534 5.72383
lowerneck -2.6156 -12.3785 -12.8539
upperneck 2.6598 -16.7498 13.7835
head 3.47543 -8.21981 5.27282
rclavicle -3.34952e-014 1.19271e-014
rhumerus -38.1567 -7.35528 -60.1715
rradius 39.2554
rwrist -2.98659
rhand -18.1649 18.9626
rfingers 7.12502
rthumb 8.11114 -10.8617
lclavicle -3.34952e-014 1.19271e-014
lhumerus -42.2814 -10.4996 86.3643
lradius 85.7311
lwrist 10.4844
lhand -14.8362 44.538
lfingers 7.12502
lthumb 11.3227 794.212
rfemur -9.97795 10.4753 13.5587
rtibia 28.6552
rfoot -25.2862 -26.86
rtoes -8.21323
lfemur -197.381 178.502 -195.324
ltibia 29.9256
lfoot -8.69012 18.5902
ltoes -33.7096
1844
root 6.42081 15.698 -2.87189 3.396 -19.2942 2.91296
lowerback 1.09932 -4.75748 -7.38809
upperback 1.23415 -6.40169 1.74855
thorax 1.67771 -3.31437 5.85798
lowerneck -2.82282 -12.5715 -12.8049
upperneck 2.88713 -17.0066 13.6788
head 3.59667 -8.33682 5.18755
rclavicle -5.31749e-015 1.98785e-016
rhumerus -38.413 -7.60561 -59.8919
rradius 38.9921
rwrist -2.62376
rhand -17.7768 18.9514
rfingers 7.12502
rthumb 8.48576 -10.8581
lclavicle -5.31749e-015 1.98785e-016
lhumerus -41.9776 -9.81968 85.5042
lradius 86.0547
lwrist 10.5424
lhand -14.5244 44.1011
lfingers 7.12502
lthumb 11.6235 793.759
rfemur -10.0514 9.4603 12.8201
rtibia 28.6271
rfoot -24.5276 -25.7538
rtoes -9.39995
lfemur -197.518 177.164 -195.787
ltibia 30.2073
lfoot -10.0469 16.8711
ltoes -32.7314
1845
root 6.54821 15.7096 -2.79106 3.51229 -19.4102 2.77018
lowerback 1.00681 -4.56273 -7.39014
upperback 1.20767 -6.13404 1.65307
thorax 1.64898 -3.17699 5.76344
lowerneck -2.94475 -12.7286 -12.6687
upperneck 2.8687 -17.2059 13.6004
head 3.6178 -8.43087 5.11623
rclavicle 1.54058e-014 1.31198e-014
rhumerus -38.4903 -7.78923 -59.7258
rradius 38.8081
rwrist -1.94122
rhand -17.1942 19.0553
rfingers 7.12502
rthumb 9.048 -10.7306
lclavicle 1.54058e-014 1.31198e-014
lhumerus -41.6976 -9.03021 84.3952
lradius 86.4926
lwrist 11.0192
lhand -14.2407 44.2625
lfingers 7.12502
lthumb 11.897 793.904
rfemur -10.245 8.29939 12.1164
rtibia 28.7428
rfoot -23.6169 -24.319
rtoes -10.9669
lfemur -197.559 176.604 -196.234
ltibia 30.4507
lfoot -10.719 16.3708
ltoes -32.1348
1846
root 6.68283 15.7254 -2.71534 3.64137 -19.5494 2.57785
lowerback 0.922279 -4.38226 -7.23662
upperback 1.23129 -5.88452 1.57305
thorax 1.65703 -3.04997 5.59602
lowerneck -2.89132 -12.8224 -12.4764
upperneck 2.51121 -17.3104 13.5679
head 3.49608 -8.48868 5.0826
rclavicle 7.34012e-014 -7.7526e-015
rhumerus -38.3959 -7.42493 -59.8116
rradius 38.9159
rwrist -1.83624
rhand -16.9841 19.3651
rfingers 7.12502
rthumb 9.25073 -10.412
lclavicle 7.34012e-014 -7.7526e-015
lhumerus -41.5042 -8.13786 83.0663
lradius 87.1148
lwrist 11.7507
lhand -14.0324 44.5232
lfingers 7.12502
lthumb 12.0979 794.153
rfemur -10.6109 7.20726 11.419
rtibia 29.0155
rfoot -22.4061 -22.9763
rtoes -13.2765
lfemur -197.585 176.427 -196.702
ltibia 30.6344
lfoot -11.0706 16.4861
ltoes -31.6364
1847
root 6.81946 15.74 -2.64349 3.73803 -19.6843 2.42825
lowerback 0.852377 -4.23465 -7.12564
upperback 1.29542 -5.68037 1.56328
thorax 1.71953 -2.95044 5.5228
lowerneck -2.97133 -12.912 -12.3666
upperneck 2.21956 -17.3948 13.5013
head 3.41674 -8.53179 5.04207
rclavicle -2.22639e-014 1.98785e-015
rhumerus -38.0721 -6.65901 -59.8956
rradius 39.1957
rwrist -2.08792
rhand -16.9821 20.3926
rfingers 7.12502
rthumb 9.2526 -9.38442
lclavicle -2.22639e-014 1.98785e-015
lhumerus -41.3154 -7.09405 81.6503
lradius 87.6257
lwrist 12.5638
lhand -13.9101 44.6627
lfingers 7.12502
lthumb 12.2157 794.286
rfemur -11.012 6.13964 10.69
rtibia 29.4652
rfoot -21.015 -21.5715
rtoes -15.6452
lfemur -197.611 176.166 -197.244
ltibia 30.7761
lfoot -11.3347 16.6041
ltoes -31.243
1848
root 6.9541 15.75 -2.56925 3.7355 -19.9351 2.4069
lowerback 0.739363 -4.10743 -7.13767
upperback 1.36842 -5.5005 1.55309
thorax 1.83196 -2.86677 5.51299
lowerneck -3.07773 -12.993 -12.2714
upperneck 2.03891 -17.4669 13.3294
head 3.36402 -8.56836 4.96942
rclavicle -5.77469e-014 1.55052e-014
rhumerus -37.6325 -5.91812 -59.7966
rradius 39.4771
rwrist -2.05094
rhand -16.3972 21.5362
rfingers 7.12502
rthumb 9.81692 -8.21501
lclavicle -5.77469e-014 1.55052e-014
lhumerus -41.2067 -6.04268 80.1163
lradius 87.9125
lwrist 13.4947
lhand -13.6466 45.3066
lfingers 7.12502
lthumb 12.4698 794.915
rfemur -11.4194 5.1482 9.84723
rtibia 30.1121
rfoot -19.6743 -20.0495
rtoes -17.5741
lfemur -197.53 175.957 -197.909
ltibia 30.9329
lfoot -11.6479 16.8773
ltoes -30.6907
1849
root 7.08655 15.7545 -2.4973 3.56518 -20.3189 2.43604
lowerback 0.730827 -3.9857 -7.17784
upperback 1.44977 -5.33486 1.50844
thorax 1.89591 -2.7888 5.49077
lowerneck -2.97341 -13.0038 -12.1053
upperneck 1.78617 -17.4608 13.1253
head 3.23658 -8.5755 4.90321
rclavicle 8.93786e-014 1.80894e-014
rhumerus -37.1414 -5.30724 -59.5383
rradius 39.6845
rwrist -1.80712
rhand -15.3857 22.4213
rfingers 7.12502
rthumb 10.7928 -7.28136
lclavicle 8.93786e-014 1.80894e-014
lhumerus -41.0212 -5.0947 78.3758
lradius 87.7679
lwrist 14.3503
lhand -13.0337 46.0881
lfingers 7.12502
lthumb 13.0608 795.659
rfemur -11.8551 4.32143 8.96618
rtibia 31.0061
rfoot -18.4666 -18.5106
rtoes -19.215
lfemur -197.29 175.592 -198.592
ltibia 31.1415
lfoot -12.1598 17.0589
ltoes -30.0671
1850
root 7.21607 15.7553 -2.4307 3.27915 -20.6436 2.4132
lowerback 0.864674 -3.89276 -7.17321
upperback 1.56073 -5.21774 1.48011
thorax 1.91544 -2.73414 5.4683
lowerneck -2.89745 -13.0086 -11.9291
upperneck 1.68137 -17.4599 12.9391
head 3.15957 -8.58154 4.83408
rclavicle 1.35919e-014 -6.55989e-015
rhumerus -36.5047 -5.03898 -59.0638
rradius 39.7106
rwrist -1.59116
rhand -15.1953 22.9957
rfingers 7.12502
rthumb 10.9764 -6.69735
lclavicle 1.35919e-014 -6.55989e-015
lhumerus -40.5925 -4.26538 76.4979
lradius 87.0949
lwrist 14.8383
lhand -12.2876 46.1222
lfingers 7.12502
lthumb 13.7799 795.646
rfemur -12.3267 3.68427 8.172
rtibia 32.2183
rfoot -17.4735 -17.0092
rtoes -19.7479
lfemur -196.98 174.886 -199.163
ltibia 31.3925
lfoot -12.8185 16.7437
ltoes -29.3188
1851
root 7.34205 15.7555 -2.36622 2.99989 -20.8238 2.37252
lowerback 1.04024 -3.87113 -7.16435
upperback 1.63215 -5.20084 1.51672
thorax 1.8914 -2.72768 5.51224
lowerneck -2.94309 -13.0592 -11.8144
upperneck 1.78315 -17.5204 12.6899
head 3.17032 -8.61186 4.73407
rclavicle -8.08805e-014 4.96962e-015
rhumerus -35.7949 -5.00022 -58.2709
rradius 39.6051
rwrist -1.94881
rhand -15.6663 23.1372
rfingers 7.12502
rthumb 10.522 -6.57942
lclavicle -8.08805e-014 4.96962e-015
lhumerus -40.0077 -3.68283 74.6907
lradius 86.0477
lwrist 15.2111
lhand -12.4238 45.8491
lfingers 7.12502
lthumb 13.6486 795.382
rfemur -12.9865 3.17196 7.41898
rtibia 33.7816
rfoot -16.3816 -15.6775
rtoes -19.3701
lfemur -196.714 173.985 -199.676
ltibia 31.6619
lfoot -13.4559 16.0641
ltoes -28.4744
